<?xml version="1.0" encoding="UTF-8"?> <svg xmlns="http://www.w3.org/2000/svg" width="451" height="195" viewBox="0 0 451 195" fill="none"> <rect x="3.32388" y="104.546" width="124.67" height="124.67" rx="12" transform="rotate(-45.6976 3.32388 104.546)" stroke="#079E8D" stroke-width="4"></rect> <path d="M336.229 167.645H366.647V181.258H322V109.076C336.879 109.084 351.754 109.091 366.635 109.099V122.618C356.499 122.64 346.366 122.666 336.229 122.689V138.053C345.197 138.008 354.166 137.963 363.13 137.915V151.534C354.166 151.509 345.197 151.482 336.229 151.456V167.645Z" fill="#079E8D"></path> <path d="M226.398 76.4917C230.788 80.8945 236.306 83.0934 242.963 83.0934C249.617 83.0934 255.136 80.8945 259.53 76.4917C263.984 72.0236 266.216 66.352 266.216 59.4786C266.216 52.6055 263.984 46.9332 259.53 42.4643C255.067 37.9946 249.546 35.7587 242.963 35.7587C236.377 35.7587 230.856 37.9946 226.398 42.4643C221.939 46.9332 219.71 52.6055 219.71 59.4786C219.71 66.352 221.939 72.0236 226.398 76.4917V76.4917ZM269.517 86.1843C262.159 93.4024 253.29 97.0122 242.911 97.0122C232.461 97.0122 223.593 93.4024 216.309 86.1843C209.089 78.9012 205.478 69.9958 205.478 59.4786C205.478 48.9602 209.089 40.0893 216.309 32.8719C223.593 25.5887 232.461 21.9442 242.911 21.9442C253.362 21.9442 262.229 25.5887 269.517 32.8719C276.801 40.0893 280.449 48.9602 280.449 59.4786C280.449 69.9958 276.801 78.9012 269.517 86.1843Z" fill="#079E8D"></path> <path d="M332.212 23.3868H346.443V95.5688H335.612L304.68 51.4335V95.5688H290.447V23.3868H301.274L332.212 67.4171V23.3868Z" fill="#079E8D"></path> <path d="M374.075 81.958H404.494V95.5707H359.843V23.3853C374.721 23.3924 389.6 23.403 404.478 23.4113V36.9311C394.342 36.9534 384.209 36.9757 374.075 36.998V52.3617C383.04 52.3175 392.008 52.2718 400.972 52.2272V65.847C392.008 65.8221 383.04 65.7911 374.075 65.7688V81.958V81.958Z" fill="#079E8D"></path> <path d="M233.423 182.703C226.206 182.703 220.173 181.12 215.326 177.958C210.48 174.795 207.06 170.431 205.067 164.864C209.722 163.703 214.381 162.549 219.038 161.388C219.754 162.528 220.975 164.159 222.91 165.611C227.013 168.684 231.422 168.781 233.834 168.781C237.825 168.781 240.745 168.06 242.6 166.611C244.46 165.174 245.386 163.348 245.386 161.154C245.386 158.607 244.251 156.647 241.984 155.269C239.718 153.832 235.66 152.283 229.816 150.632C226.583 149.668 223.854 148.709 221.618 147.745C219.381 146.782 217.133 145.509 214.864 143.93C210.327 140.562 208.057 135.611 208.057 129.081C208.057 122.48 210.361 117.29 214.968 113.509C219.571 109.592 225.176 107.632 231.776 107.632C237.616 107.632 242.758 109.044 247.193 111.858C251.624 114.677 255.078 118.668 257.553 123.82C253.14 125.344 248.732 126.864 244.317 128.379C243.679 127.285 242.089 124.895 239.034 123.197C235.869 121.435 232.957 121.449 231.776 121.449C228.82 121.449 226.502 122.118 224.814 123.462C223.13 124.8 222.29 126.539 222.29 128.667C222.29 130.937 223.219 132.793 225.075 134.238C227.132 135.679 230.776 137.195 235.999 138.77L240.954 140.425C241.502 140.562 242.171 140.782 242.963 141.092C243.754 141.402 244.628 141.764 245.595 142.179C247.656 142.937 249.168 143.654 250.132 144.345C251.229 145.027 252.468 145.958 253.843 147.126C255.217 148.294 256.246 149.497 256.934 150.733C257.692 151.972 258.326 153.47 258.846 155.22C259.357 156.972 259.618 158.879 259.618 160.944C259.618 167.613 257.172 172.906 252.297 176.823C247.413 180.743 241.126 182.703 233.423 182.703V182.703Z" fill="#079E8D"></path> <path d="M314.061 109.075V122.689H294.571V181.258H280.343V122.689H260.954V109.075H314.061Z" fill="#079E8D"></path> <path d="M403.566 144.237C405.078 144.237 406.485 143.965 407.796 143.411C409.098 142.863 410.215 142.09 411.146 141.094C412.075 140.1 412.795 138.946 413.311 137.636C413.826 136.336 414.083 134.891 414.083 133.308C414.083 130.15 413.106 127.533 411.146 125.471C409.185 123.411 406.661 122.38 403.566 122.38H390.882V144.237H403.566V144.237ZM403.621 109.077C410.506 109.077 416.365 111.414 421.185 116.089C425.938 120.764 428.316 126.502 428.316 133.308C428.316 140.182 425.933 145.925 421.181 150.532C416.353 155.207 410.491 157.54 403.603 157.54H390.882V181.255H376.654V109.077H403.621Z" fill="#079E8D"></path> <path d="M115.687 102.777C115.247 101.985 114.414 101.504 113.51 101.511C112.599 101.519 111.782 102.019 111.36 102.818L78.7246 164.479C78.2162 165.439 78.3954 166.615 79.1611 167.372L90.0446 178.263C90.511 178.73 91.1346 178.987 91.7964 178.987C92.4416 178.987 93.069 178.73 93.532 178.263L133.415 138.381C134.191 137.604 134.359 136.41 133.828 135.446L115.687 102.777V102.777Z" fill="#079E8D"></path> <path d="M81.2149 137.579C59.0416 124.885 46.4025 100.408 48.8406 74.9742C48.934 73.9398 48.3746 72.9352 47.4335 72.4945C46.4924 72.0576 45.3805 72.2598 44.648 72.9953L16.4585 101.192C15.9917 101.647 15.7305 102.278 15.7305 102.932C15.7305 103.588 15.9917 104.208 16.4585 104.674L69.5966 157.804C70.1447 158.36 70.9289 158.625 71.7052 158.502C72.4751 158.387 73.1467 157.905 73.5118 157.222L82.1673 140.872C82.783 139.696 82.3608 138.24 81.2149 137.579V137.579Z" fill="#079E8D"></path> <path d="M94.865 28.9272C94.1681 28.228 93.1181 28.0156 92.1963 28.3788C72.076 36.5618 58.0853 55.6034 56.5962 77.2729C55.0912 98.9473 66.0613 119.575 84.867 130.451C85.4491 130.792 86.1404 130.873 86.7901 130.687C87.4322 130.504 87.97 130.063 88.2833 129.473L105.175 97.5689C106.802 94.4671 109.983 92.5437 113.493 92.4995C116.995 92.4579 120.243 94.3401 121.957 97.4015L139.083 128.267C139.464 128.942 140.14 129.406 140.897 129.514C141.666 129.622 142.432 129.365 142.981 128.813L167.131 104.674C167.586 104.211 167.847 103.578 167.847 102.93C167.847 102.278 167.586 101.647 167.131 101.19L94.865 28.9272V28.9272Z" fill="#079E8D"></path> <path fill-rule="evenodd" clip-rule="evenodd" d="M417.33 16.4272C417.33 25.6484 424.643 33.0249 433.864 33.0249C442.894 33.0249 450.272 25.6484 450.272 16.4272C450.272 7.39676 442.894 0.0202637 433.864 0.0202637C424.643 0.0202637 417.33 7.39676 417.33 16.4272ZM421.463 16.4907C421.463 9.68601 426.996 4.15355 433.8 4.15355C440.605 4.15355 446.137 9.68601 446.137 16.4907C446.137 23.2953 440.605 28.8281 433.8 28.8281C426.996 28.8281 421.463 23.2953 421.463 16.4907ZM431.066 25.1393V18.7164H433.419L437.425 25.1393H441.559L436.853 18.0168C439.015 17.3811 440.668 15.3458 440.668 12.8657C440.668 9.74951 438.824 7.33326 433.8 7.33326H427.568V25.1393H431.066ZM433.355 9.87688C435.835 9.87688 437.171 11.0856 437.171 12.9292C437.171 14.8371 435.581 16.1728 433.546 16.1728H431.066V9.87688H433.355V9.87688Z" fill="#079E8D"></path> <path d="M336.234 167.645H366.653V181.258H322.006V109.076C336.884 109.084 351.759 109.091 366.641 109.099V122.618C356.505 122.64 346.371 122.666 336.234 122.689V138.053C345.203 138.008 354.172 137.963 363.136 137.915V151.534C354.172 151.509 345.203 151.482 336.234 151.456V167.645V167.645Z" fill="#079E8D"></path> <path d="M226.402 76.4917C230.793 80.8945 236.311 83.0934 242.967 83.0934C249.621 83.0934 255.14 80.8945 259.534 76.4917C263.989 72.0236 266.221 66.352 266.221 59.4786C266.221 52.6055 263.989 46.9332 259.534 42.4643C255.072 37.9946 249.551 35.7587 242.967 35.7587C236.382 35.7587 230.86 37.9946 226.402 42.4643C221.943 46.9332 219.714 52.6055 219.714 59.4786C219.714 66.352 221.943 72.0236 226.402 76.4917V76.4917ZM269.522 86.1843C262.163 93.4024 253.295 97.0122 242.916 97.0122C232.466 97.0122 223.597 93.4024 216.312 86.1843C209.093 78.9012 205.481 69.9958 205.481 59.4786C205.481 48.9602 209.093 40.0893 216.312 32.8719C223.597 25.5887 232.466 21.9442 242.916 21.9442C253.366 21.9442 262.234 25.5887 269.522 32.8719C276.806 40.0893 280.453 48.9602 280.453 59.4786C280.453 69.9958 276.806 78.9012 269.522 86.1843Z" fill="#079E8D"></path> <path d="M332.217 23.3868H346.448V95.5688H335.617L304.685 51.4335V95.5688H290.451V23.3868H301.279L332.217 67.4171V23.3868Z" fill="#079E8D"></path> <path d="M374.081 81.958H404.499V95.5707H359.849V23.3853C374.727 23.3924 389.606 23.403 404.484 23.4113V36.9311C394.348 36.9534 384.215 36.9757 374.081 36.998V52.3617C383.046 52.3175 392.014 52.2718 400.978 52.2272V65.847C392.014 65.8221 383.046 65.7911 374.081 65.7688V81.958Z" fill="#079E8D"></path> <path d="M233.428 182.703C226.211 182.703 220.177 181.12 215.33 177.958C210.484 174.795 207.064 170.431 205.071 164.864C209.726 163.703 214.385 162.549 219.042 161.388C219.759 162.528 220.979 164.159 222.913 165.611C227.017 168.684 231.426 168.781 233.839 168.781C237.83 168.781 240.75 168.06 242.605 166.611C244.464 165.174 245.39 163.348 245.39 161.154C245.39 158.607 244.256 156.647 241.989 155.269C239.723 153.832 235.664 152.283 229.821 150.632C226.587 149.668 223.857 148.709 221.621 147.745C219.385 146.782 217.137 145.509 214.868 143.93C210.331 140.562 208.061 135.611 208.061 129.081C208.061 122.48 210.365 117.29 214.971 113.509C219.576 109.592 225.179 107.632 231.781 107.632C237.621 107.632 242.762 109.044 247.197 111.858C251.629 114.677 255.082 118.668 257.558 123.82C253.145 125.344 248.736 126.864 244.322 128.379C243.684 127.285 242.093 124.895 239.039 123.197C235.874 121.435 232.961 121.449 231.781 121.449C228.824 121.449 226.505 122.118 224.817 123.462C223.134 124.8 222.293 126.539 222.293 128.667C222.293 130.937 223.224 132.793 225.079 134.238C227.136 135.679 230.781 137.195 236.004 138.77L240.959 140.425C241.507 140.562 242.176 140.782 242.967 141.092C243.758 141.402 244.632 141.764 245.599 142.179C247.66 142.937 249.173 143.654 250.136 144.345C251.233 145.027 252.473 145.958 253.848 147.126C255.221 148.294 256.251 149.497 256.939 150.733C257.697 151.972 258.331 153.47 258.85 155.22C259.362 156.972 259.623 158.879 259.623 160.944C259.623 167.613 257.177 172.906 252.301 176.823C247.418 180.743 241.131 182.703 233.428 182.703V182.703Z" fill="#079E8D"></path> <path d="M314.066 109.075V122.689H294.577V181.258H280.348V122.689H260.959V109.075H314.066Z" fill="#079E8D"></path> <path d="M403.571 144.237C405.084 144.237 406.491 143.965 407.802 143.411C409.104 142.863 410.221 142.09 411.151 141.094C412.081 140.1 412.801 138.946 413.316 137.636C413.832 136.336 414.089 134.891 414.089 133.308C414.089 130.15 413.111 127.533 411.151 125.471C409.191 123.411 406.667 122.38 403.571 122.38H390.888V144.237H403.571V144.237ZM403.627 109.077C410.512 109.077 416.371 111.414 421.191 116.089C425.944 120.764 428.322 126.502 428.322 133.308C428.322 140.182 425.94 145.925 421.187 150.532C416.359 155.207 410.497 157.54 403.61 157.54H390.888V181.255H376.66V109.077H403.627Z" fill="#079E8D"></path> <path d="M115.691 102.777C115.25 101.985 114.418 101.504 113.513 101.511C112.603 101.519 111.786 102.019 111.363 102.818L78.7272 164.479C78.2189 165.439 78.398 166.615 79.1637 167.372L90.0472 178.263C90.5136 178.73 91.1373 178.987 91.7987 178.987C92.4442 178.987 93.0716 178.73 93.5346 178.263L133.418 138.381C134.194 137.604 134.362 136.41 133.832 135.446L115.691 102.777V102.777Z" fill="#079E8D"></path> <path d="M81.2175 137.579C59.0442 124.885 46.4051 100.408 48.8433 74.9742C48.9366 73.9398 48.3773 72.9352 47.4362 72.4945C46.4951 72.0576 45.3831 72.2598 44.6507 72.9953L16.4604 101.192C15.9936 101.647 15.7324 102.278 15.7324 102.932C15.7324 103.588 15.9936 104.208 16.4604 104.674L69.5993 157.804C70.1473 158.36 70.9316 158.625 71.7079 158.502C72.4778 158.387 73.1494 157.905 73.5145 157.222L82.17 140.872C82.7856 139.696 82.3631 138.24 81.2175 137.579V137.579Z" fill="#079E8D"></path> <path d="M94.8676 28.9272C94.1707 28.228 93.1208 28.0156 92.1989 28.3788C72.0787 36.5618 58.088 55.6034 56.5989 77.2729C55.0939 98.9473 66.0639 119.575 84.8697 130.451C85.4517 130.792 86.143 130.873 86.7927 130.687C87.4348 130.504 87.9727 130.063 88.286 129.473L105.178 97.5689C106.806 94.4671 109.986 92.5437 113.496 92.4995C116.999 92.4579 120.246 94.3401 121.96 97.4015L139.086 128.267C139.467 128.942 140.143 129.406 140.901 129.514C141.67 129.622 142.435 129.365 142.984 128.813L167.135 104.674C167.59 104.211 167.851 103.578 167.851 102.93C167.851 102.278 167.59 101.647 167.135 101.19L94.8676 28.9272V28.9272Z" fill="#079E8D"></path> <path fill-rule="evenodd" clip-rule="evenodd" d="M417.336 16.4272C417.336 25.6484 424.649 33.0249 433.87 33.0249C442.901 33.0249 450.278 25.6484 450.278 16.4272C450.278 7.39676 442.901 0.0202637 433.87 0.0202637C424.649 0.0202637 417.336 7.39676 417.336 16.4272ZM421.47 16.4907C421.47 9.68601 427.003 4.15355 433.807 4.15355C440.611 4.15355 446.144 9.68601 446.144 16.4907C446.144 23.2953 440.611 28.8281 433.807 28.8281C427.003 28.8281 421.47 23.2953 421.47 16.4907ZM431.072 25.1393V18.7164H433.425L437.432 25.1393H441.566L436.859 18.0168C439.021 17.3811 440.675 15.3458 440.675 12.8657C440.675 9.74951 438.831 7.33326 433.807 7.33326H427.575V25.1393H431.072ZM433.362 9.87688C435.842 9.87688 437.177 11.0856 437.177 12.9292C437.177 14.8371 435.588 16.1728 433.552 16.1728H431.072V9.87688H433.362V9.87688Z" fill="#079E8D"></path> </svg> 